{
	"bufferViews":[{
		"buffer":0,
		"byteOffset":0,
		"byteLength":1820
	},
	{
		"buffer":1,
		"byteOffset":0,
		"byteLength":57672,
		"target":34963
	},
	{
		"buffer":1,
		"byteOffset":57672,
		"byteLength":166592,
		"target":34962,
		"byteStride":32
	},
	{
		"buffer":2,
		"byteOffset":0,
		"byteLength":57672,
		"target":34963
	},
	{
		"buffer":2,
		"byteOffset":57672,
		"byteLength":166592,
		"target":34962,
		"byteStride":32
	},
	{
		"buffer":3,
		"byteOffset":0,
		"byteLength":57672,
		"target":34963
	},
	{
		"buffer":3,
		"byteOffset":57672,
		"byteLength":166592,
		"target":34962,
		"byteStride":32
	},
	{
		"buffer":4,
		"byteOffset":0,
		"byteLength":960,
		"target":34963
	},
	{
		"buffer":4,
		"byteOffset":960,
		"byteLength":3808,
		"target":34962,
		"byteStride":32
	},
	{
		"buffer":5,
		"byteOffset":0,
		"byteLength":3840,
		"target":34963
	},
	{
		"buffer":5,
		"byteOffset":3840,
		"byteLength":14976,
		"target":34962,
		"byteStride":32
	},
	{
		"buffer":6,
		"byteOffset":0,
		"byteLength":1920,
		"target":34963
	},
	{
		"buffer":6,
		"byteOffset":1920,
		"byteLength":7488,
		"target":34962,
		"byteStride":32
	},
	{
		"buffer":7,
		"byteOffset":0,
		"byteLength":2112,
		"target":34963
	},
	{
		"buffer":7,
		"byteOffset":2112,
		"byteLength":7008,
		"target":34962,
		"byteStride":32
	},
	{
		"buffer":8,
		"byteOffset":0,
		"byteLength":1820
	},
	{
		"buffer":9,
		"byteOffset":0,
		"byteLength":78,
		"target":34963
	},
	{
		"buffer":9,
		"byteOffset":80,
		"byteLength":672,
		"target":34962,
		"byteStride":32
	},
	{
		"buffer":10,
		"byteOffset":0,
		"byteLength":78,
		"target":34963
	},
	{
		"buffer":10,
		"byteOffset":80,
		"byteLength":672,
		"target":34962,
		"byteStride":32
	},
	{
		"buffer":11,
		"byteOffset":0,
		"byteLength":78,
		"target":34963
	},
	{
		"buffer":11,
		"byteOffset":80,
		"byteLength":672,
		"target":34962,
		"byteStride":32
	},
	{
		"buffer":12,
		"byteOffset":0,
		"byteLength":78,
		"target":34963
	},
	{
		"buffer":12,
		"byteOffset":80,
		"byteLength":672,
		"target":34962,
		"byteStride":32
	},
	{
		"buffer":13,
		"byteOffset":0,
		"byteLength":960,
		"target":34963
	},
	{
		"buffer":13,
		"byteOffset":960,
		"byteLength":3808,
		"target":34962,
		"byteStride":32
	},
	{
		"buffer":14,
		"byteOffset":0,
		"byteLength":4488,
		"target":34963
	},
	{
		"buffer":14,
		"byteOffset":4488,
		"byteLength":22784,
		"target":34962,
		"byteStride":32
	},
	{
		"buffer":15,
		"byteOffset":0,
		"byteLength":76716,
		"target":34963
	},
	{
		"buffer":15,
		"byteOffset":76716,
		"byteLength":293472,
		"target":34962,
		"byteStride":32
	}],
	"asset":{
		"version":"2.0",
		"generator":"Created using the official Cinema 4D glTF Exporter 1.000x284978"
	},
	"scenes":[{
		"nodes":[0]
	}],
	"nodes":[{
		"name":"空白",
		"translation":[116.73128509521485,
		152.55860900878907,
		8.977075576782227],
		"rotation":[0.0,
		0.0,
		0.0,
		-1.0],
		"scale":[1.0,
		1.0,
		1.0],
		"children":[1,
		5,
		6,
		8,
		9,
		10,
		15,
		16]
	},
	{
		"name":"空白.1",
		"translation":[580.3683471679688,
		39.66317367553711,
		26.537567138671876],
		"rotation":[0.0,
		0.0,
		0.9525730013847351,
		-0.3043101727962494],
		"scale":[1.0,
		1.0,
		1.0],
		"children":[2,
		3,
		4]
	},
	{
		"name":"立方体.2",
		"translation":[-40.1605110168457,
		-25.463905334472658,
		-7.105427357601002e-15],
		"rotation":[0.0,
		0.0,
		0.8660253882408142,
		0.5],
		"scale":[1.0,
		1.0,
		1.0],
		"mesh":0
	},
	{
		"name":"立方体.1",
		"translation":[43.17591094970703,
		-25.463905334472658,
		-7.105427357601002e-15],
		"rotation":[0.0,
		0.0,
		0.8660253882408142,
		-0.5],
		"scale":[1.0,
		1.0,
		1.0],
		"mesh":1
	},
	{
		"name":"立方体",
		"translation":[-3.015397787094116,
		50.92781066894531,
		-7.105427357601002e-15],
		"rotation":[0.0,
		0.0,
		0.0,
		-1.0],
		"scale":[1.0,
		1.0,
		1.0],
		"mesh":2
	},
	{
		"name":"圆柱.1",
		"translation":[578.7877807617188,
		36.44138717651367,
		11.022924423217774],
		"rotation":[0.0,
		0.0,
		0.0,
		-1.0],
		"scale":[1.0,
		1.0,
		1.0],
		"mesh":3
	},
	{
		"name":"对称",
		"translation":[-116.73128509521485,
		-163.55860900878907,
		-8.977075576782227],
		"rotation":[0.0,
		0.0,
		0.0,
		-1.0],
		"scale":[1.0,
		1.0,
		1.0],
		"children":[7]
	},
	{
		"name":"管道",
		"translation":[84.91478729248047,
		34.85944747924805,
		104.21376037597656],
		"rotation":[0.0,
		0.0,
		0.0,
		-1.0],
		"scale":[1.0,
		1.0,
		1.0],
		"mesh":4
	},
	{
		"name":"管道.1",
		"translation":[-521.8165283203125,
		-118.69916534423828,
		-4.763316631317139],
		"rotation":[0.0,
		0.0,
		0.0,
		-1.0],
		"scale":[1.0,
		1.0,
		1.0],
		"mesh":5
	},
	{
		"name":"胶囊",
		"translation":[-134.84982299804688,
		170.79591369628907,
		-3.503925085067749],
		"rotation":[0.0,
		0.0,
		0.0,
		-1.0],
		"scale":[1.0,
		1.0,
		1.0],
		"mesh":6
	},
	{
		"name":"空白",
		"translation":[-134.8240203857422,
		177.5079345703125,
		-3.5328218936920168],
		"rotation":[0.0,
		-0.028793951496481897,
		0.0,
		-0.9995853900909424],
		"scale":[1.0,
		1.0,
		1.0],
		"children":[11,
		12,
		13,
		14]
	},
	{
		"name":"圆盘",
		"translation":[8.881784197001253e-16,
		0.0,
		5.551115123125783e-16],
		"rotation":[0.0,
		-0.7660444378852844,
		0.0,
		-0.6427876353263855],
		"scale":[1.0,
		1.0,
		1.0],
		"mesh":7
	},
	{
		"name":"圆盘.1",
		"translation":[8.881784197001253e-16,
		0.0,
		5.551115123125783e-16],
		"rotation":[0.0,
		0.0,
		0.0,
		-1.0],
		"scale":[1.0,
		1.0,
		1.0],
		"mesh":8
	},
	{
		"name":"圆盘.3",
		"translation":[8.881784197001253e-16,
		0.0,
		5.551115123125783e-16],
		"rotation":[0.0,
		-1.0,
		0.0,
		-6.123234262925839e-17],
		"scale":[1.0,
		1.0,
		1.0],
		"mesh":9
	},
	{
		"name":"圆盘.2",
		"translation":[8.881784197001253e-16,
		0.0,
		5.551115123125783e-16],
		"rotation":[0.0,
		-0.7071067690849304,
		0.0,
		0.7071067690849304],
		"scale":[1.0,
		1.0,
		1.0],
		"mesh":10
	},
	{
		"name":"圆柱",
		"translation":[-31.89375877380371,
		-128.6157684326172,
		-8.977075576782227],
		"rotation":[-0.7071067690849304,
		0.0,
		0.0,
		-0.7071067690849304],
		"scale":[1.0,
		1.0,
		1.0],
		"mesh":11
	},
	{
		"name":"1",
		"translation":[-219.040771484375,
		-13.534855842590332,
		-7.806277275085449],
		"rotation":[0.0,
		0.0,
		0.0,
		-1.0],
		"scale":[1.0,
		1.0,
		1.0],
		"children":[17,
		18]
	},
	{
		"name":"AM84_017_07",
		"translation":[191.65773010253907,
		-115.87290954589844,
		3.9986021518707277],
		"rotation":[0.0,
		0.0,
		0.0,
		-1.0],
		"scale":[1.0,
		1.0,
		1.0],
		"mesh":12
	},
	{
		"name":"AM84_017_11",
		"translation":[783.2752685546875,
		81.22653198242188,
		7.6443610191345219],
		"rotation":[0.3225591778755188,
		-0.8618655800819397,
		0.3681282103061676,
		-0.13275869190692902],
		"scale":[1.0,
		1.0,
		1.0],
		"mesh":13
	}],
	"meshes":[{
		"name":"立方体.2",
		"primitives":[{
			"attributes":{
				"POSITION":3,
				"NORMAL":4,
				"TEXCOORD_0":5
			},
			"indices":2
		}]
	},
	{
		"name":"立方体.1",
		"primitives":[{
			"attributes":{
				"POSITION":7,
				"NORMAL":8,
				"TEXCOORD_0":9
			},
			"indices":6
		}]
	},
	{
		"name":"立方体",
		"primitives":[{
			"attributes":{
				"POSITION":11,
				"NORMAL":12,
				"TEXCOORD_0":13
			},
			"indices":10
		}]
	},
	{
		"name":"圆柱.1",
		"primitives":[{
			"attributes":{
				"POSITION":15,
				"NORMAL":16,
				"TEXCOORD_0":17
			},
			"indices":14
		}]
	},
	{
		"name":"管道",
		"primitives":[{
			"attributes":{
				"POSITION":19,
				"NORMAL":20,
				"TEXCOORD_0":21
			},
			"indices":18
		}]
	},
	{
		"name":"管道.1",
		"primitives":[{
			"attributes":{
				"POSITION":23,
				"NORMAL":24,
				"TEXCOORD_0":25
			},
			"indices":22
		}]
	},
	{
		"name":"胶囊",
		"primitives":[{
			"attributes":{
				"POSITION":27,
				"NORMAL":28,
				"TEXCOORD_0":29
			},
			"indices":26
		}]
	},
	{
		"name":"圆盘",
		"primitives":[{
			"attributes":{
				"POSITION":33,
				"NORMAL":34,
				"TEXCOORD_0":35
			},
			"indices":32
		}]
	},
	{
		"name":"圆盘.1",
		"primitives":[{
			"attributes":{
				"POSITION":37,
				"NORMAL":38,
				"TEXCOORD_0":39
			},
			"indices":36
		}]
	},
	{
		"name":"圆盘.3",
		"primitives":[{
			"attributes":{
				"POSITION":41,
				"NORMAL":42,
				"TEXCOORD_0":43
			},
			"indices":40
		}]
	},
	{
		"name":"圆盘.2",
		"primitives":[{
			"attributes":{
				"POSITION":45,
				"NORMAL":46,
				"TEXCOORD_0":47
			},
			"indices":44
		}]
	},
	{
		"name":"圆柱",
		"primitives":[{
			"attributes":{
				"POSITION":49,
				"NORMAL":50,
				"TEXCOORD_0":51
			},
			"indices":48
		}]
	},
	{
		"name":"AM84_017_07",
		"primitives":[{
			"attributes":{
				"POSITION":53,
				"NORMAL":54,
				"TEXCOORD_0":55
			},
			"indices":52,
			"material":0
		}]
	},
	{
		"name":"AM84_017_11",
		"primitives":[{
			"attributes":{
				"POSITION":57,
				"NORMAL":58,
				"TEXCOORD_0":59
			},
			"indices":56,
			"material":1
		}]
	}],
	"accessors":[{
		"bufferView":0,
		"count":91,
		"componentType":5126,
		"type":"SCALAR",
		"byteOffset":0,
		"min":[0.0],
		"max":[3.0]
	},
	{
		"bufferView":0,
		"count":91,
		"componentType":5126,
		"type":"VEC4",
		"byteOffset":364,
		"min":[0.0,
		0.0,
		0.0,
		-1.0],
		"max":[0.0,
		0.0,
		0.9999896287918091,
		0.9999584555625916]
	},
	{
		"bufferView":1,
		"count":28836,
		"componentType":5123,
		"type":"SCALAR",
		"byteOffset":0,
		"min":[0],
		"max":[5205]
	},
	{
		"bufferView":2,
		"count":5206,
		"componentType":5126,
		"type":"VEC3",
		"byteOffset":0,
		"min":[-6.65471887588501,
		-52.358829498291019,
		-3.1110239028930666],
		"max":[6.65471887588501,
		52.358829498291019,
		3.1110239028930666]
	},
	{
		"bufferView":2,
		"count":5206,
		"componentType":5126,
		"type":"VEC3",
		"byteOffset":12,
		"min":[-0.9997323155403137,
		-0.999640703201294,
		-0.9997323155403137],
		"max":[0.9997323155403137,
		0.999640703201294,
		0.9997323155403137]
	},
	{
		"bufferView":2,
		"count":5206,
		"componentType":5126,
		"type":"VEC2",
		"byteOffset":24,
		"min":[0.0,
		0.0],
		"max":[1.0,
		1.0]
	},
	{
		"bufferView":3,
		"count":28836,
		"componentType":5123,
		"type":"SCALAR",
		"byteOffset":0,
		"min":[0],
		"max":[5205]
	},
	{
		"bufferView":4,
		"count":5206,
		"componentType":5126,
		"type":"VEC3",
		"byteOffset":0,
		"min":[-6.65471887588501,
		-52.358829498291019,
		-3.1110239028930666],
		"max":[6.65471887588501,
		52.358829498291019,
		3.1110239028930666]
	},
	{
		"bufferView":4,
		"count":5206,
		"componentType":5126,
		"type":"VEC3",
		"byteOffset":12,
		"min":[-0.9997323155403137,
		-0.999640703201294,
		-0.9997323155403137],
		"max":[0.9997323155403137,
		0.999640703201294,
		0.9997323155403137]
	},
	{
		"bufferView":4,
		"count":5206,
		"componentType":5126,
		"type":"VEC2",
		"byteOffset":24,
		"min":[0.0,
		0.0],
		"max":[1.0,
		1.0]
	},
	{
		"bufferView":5,
		"count":28836,
		"componentType":5123,
		"type":"SCALAR",
		"byteOffset":0,
		"min":[0],
		"max":[5205]
	},
	{
		"bufferView":6,
		"count":5206,
		"componentType":5126,
		"type":"VEC3",
		"byteOffset":0,
		"min":[-6.65471887588501,
		-52.358829498291019,
		-3.1110239028930666],
		"max":[6.65471887588501,
		52.358829498291019,
		3.1110239028930666]
	},
	{
		"bufferView":6,
		"count":5206,
		"componentType":5126,
		"type":"VEC3",
		"byteOffset":12,
		"min":[-0.9997323155403137,
		-0.999640703201294,
		-0.9997323155403137],
		"max":[0.9997323155403137,
		0.999640703201294,
		0.9997323155403137]
	},
	{
		"bufferView":6,
		"count":5206,
		"componentType":5126,
		"type":"VEC2",
		"byteOffset":24,
		"min":[0.0,
		0.0],
		"max":[1.0,
		1.0]
	},
	{
		"bufferView":7,
		"count":480,
		"componentType":5123,
		"type":"SCALAR",
		"byteOffset":0,
		"min":[0],
		"max":[118]
	},
	{
		"bufferView":8,
		"count":119,
		"componentType":5126,
		"type":"VEC3",
		"byteOffset":0,
		"min":[-10.060434341430664,
		-10.060434341430664,
		-20.120868682861329],
		"max":[10.060434341430664,
		10.060434341430664,
		20.120868682861329]
	},
	{
		"bufferView":8,
		"count":119,
		"componentType":5126,
		"type":"VEC3",
		"byteOffset":12,
		"min":[-1.0,
		-1.0,
		-1.0],
		"max":[1.0,
		1.0,
		1.0]
	},
	{
		"bufferView":8,
		"count":119,
		"componentType":5126,
		"type":"VEC2",
		"byteOffset":24,
		"min":[0.0,
		0.0],
		"max":[1.0,
		1.0]
	},
	{
		"bufferView":9,
		"count":1920,
		"componentType":5123,
		"type":"SCALAR",
		"byteOffset":0,
		"min":[0],
		"max":[467]
	},
	{
		"bufferView":10,
		"count":468,
		"componentType":5126,
		"type":"VEC3",
		"byteOffset":0,
		"min":[-43.064170837402347,
		-43.064170837402347,
		-229.95960998535157],
		"max":[43.064170837402347,
		43.064170837402347,
		21.532085418701173]
	},
	{
		"bufferView":10,
		"count":468,
		"componentType":5126,
		"type":"VEC3",
		"byteOffset":12,
		"min":[-1.0,
		-1.0,
		-1.0],
		"max":[1.0,
		1.0,
		1.0]
	},
	{
		"bufferView":10,
		"count":468,
		"componentType":5126,
		"type":"VEC2",
		"byteOffset":24,
		"min":[0.0,
		0.0],
		"max":[1.0,
		1.0]
	},
	{
		"bufferView":11,
		"count":960,
		"componentType":5123,
		"type":"SCALAR",
		"byteOffset":0,
		"min":[0],
		"max":[233]
	},
	{
		"bufferView":12,
		"count":234,
		"componentType":5126,
		"type":"VEC3",
		"byteOffset":0,
		"min":[-33.40341567993164,
		-33.40341567993164,
		-16.70170783996582],
		"max":[33.40341567993164,
		33.40341567993164,
		16.70170783996582]
	},
	{
		"bufferView":12,
		"count":234,
		"componentType":5126,
		"type":"VEC3",
		"byteOffset":12,
		"min":[-1.0,
		-1.0,
		-1.0],
		"max":[1.0,
		1.0,
		1.0]
	},
	{
		"bufferView":12,
		"count":234,
		"componentType":5126,
		"type":"VEC2",
		"byteOffset":24,
		"min":[0.0,
		0.0],
		"max":[1.0,
		1.0]
	},
	{
		"bufferView":13,
		"count":1056,
		"componentType":5123,
		"type":"SCALAR",
		"byteOffset":0,
		"min":[0],
		"max":[218]
	},
	{
		"bufferView":14,
		"count":219,
		"componentType":5126,
		"type":"VEC3",
		"byteOffset":0,
		"min":[-2.122370481491089,
		-10.231566429138184,
		-2.122370481491089],
		"max":[2.122370481491089,
		10.231566429138184,
		2.122370481491089]
	},
	{
		"bufferView":14,
		"count":219,
		"componentType":5126,
		"type":"VEC3",
		"byteOffset":12,
		"min":[-1.0,
		-1.0,
		-1.0],
		"max":[1.0,
		1.0,
		1.0]
	},
	{
		"bufferView":14,
		"count":219,
		"componentType":5126,
		"type":"VEC2",
		"byteOffset":24,
		"min":[0.0,
		0.0],
		"max":[1.0,
		1.0]
	},
	{
		"bufferView":15,
		"count":91,
		"componentType":5126,
		"type":"SCALAR",
		"byteOffset":0,
		"min":[0.0],
		"max":[3.0]
	},
	{
		"bufferView":15,
		"count":91,
		"componentType":5126,
		"type":"VEC4",
		"byteOffset":364,
		"min":[0.0,
		-0.9990859031677246,
		-5.128641067386752e-9,
		-1.0],
		"max":[5.4044604347325279e-9,
		0.0,
		0.0,
		0.9923319220542908]
	},
	{
		"bufferView":16,
		"count":39,
		"componentType":5123,
		"type":"SCALAR",
		"byteOffset":0,
		"min":[0],
		"max":[20]
	},
	{
		"bufferView":17,
		"count":21,
		"componentType":5126,
		"type":"VEC3",
		"byteOffset":0,
		"min":[-448.72113037109377,
		-3.410605131648481e-13,
		-77.91960906982422],
		"max":[-2.8171909249863349e-15,
		0.853515625,
		-3.552713678800501e-15]
	},
	{
		"bufferView":17,
		"count":21,
		"componentType":5126,
		"type":"VEC3",
		"byteOffset":12,
		"min":[-0.9995770454406738,
		0.0,
		-0.9848077893257141],
		"max":[0.1736481934785843,
		1.0,
		1.0]
	},
	{
		"bufferView":17,
		"count":21,
		"componentType":5126,
		"type":"VEC2",
		"byteOffset":24,
		"min":[0.0,
		0.41317588090896609],
		"max":[0.5,
		0.5]
	},
	{
		"bufferView":18,
		"count":39,
		"componentType":5123,
		"type":"SCALAR",
		"byteOffset":0,
		"min":[0],
		"max":[20]
	},
	{
		"bufferView":19,
		"count":21,
		"componentType":5126,
		"type":"VEC3",
		"byteOffset":0,
		"min":[-448.72113037109377,
		0.0,
		-77.91960906982422],
		"max":[-9.611352732712695e-16,
		0.853515625,
		4.440892098500626e-16]
	},
	{
		"bufferView":19,
		"count":21,
		"componentType":5126,
		"type":"VEC3",
		"byteOffset":12,
		"min":[-0.9995770454406738,
		0.0,
		-0.9848077893257141],
		"max":[0.1736481934785843,
		1.0,
		1.0]
	},
	{
		"bufferView":19,
		"count":21,
		"componentType":5126,
		"type":"VEC2",
		"byteOffset":24,
		"min":[0.0,
		0.41317588090896609],
		"max":[0.5,
		0.5]
	},
	{
		"bufferView":20,
		"count":39,
		"componentType":5123,
		"type":"SCALAR",
		"byteOffset":0,
		"min":[0],
		"max":[20]
	},
	{
		"bufferView":21,
		"count":21,
		"componentType":5126,
		"type":"VEC3",
		"byteOffset":0,
		"min":[-448.72113037109377,
		-1.1368683772161604e-13,
		-77.91960906982422],
		"max":[1.629053998224465e-15,
		0.853515625,
		0.0]
	},
	{
		"bufferView":21,
		"count":21,
		"componentType":5126,
		"type":"VEC3",
		"byteOffset":12,
		"min":[-0.9995770454406738,
		0.0,
		-0.9848077893257141],
		"max":[0.1736481934785843,
		1.0,
		1.0]
	},
	{
		"bufferView":21,
		"count":21,
		"componentType":5126,
		"type":"VEC2",
		"byteOffset":24,
		"min":[0.0,
		0.41317588090896609],
		"max":[0.5,
		0.5]
	},
	{
		"bufferView":22,
		"count":39,
		"componentType":5123,
		"type":"SCALAR",
		"byteOffset":0,
		"min":[0],
		"max":[20]
	},
	{
		"bufferView":23,
		"count":21,
		"componentType":5126,
		"type":"VEC3",
		"byteOffset":0,
		"min":[-448.72113037109377,
		-5.684341886080802e-14,
		-77.91960906982422],
		"max":[0.0,
		0.853515625,
		4.477988329942102e-15]
	},
	{
		"bufferView":23,
		"count":21,
		"componentType":5126,
		"type":"VEC3",
		"byteOffset":12,
		"min":[-0.9995770454406738,
		0.0,
		-0.9848077893257141],
		"max":[0.1736481934785843,
		1.0,
		1.0]
	},
	{
		"bufferView":23,
		"count":21,
		"componentType":5126,
		"type":"VEC2",
		"byteOffset":24,
		"min":[0.0,
		0.41317588090896609],
		"max":[0.5,
		0.5]
	},
	{
		"bufferView":24,
		"count":480,
		"componentType":5123,
		"type":"SCALAR",
		"byteOffset":0,
		"min":[0],
		"max":[118]
	},
	{
		"bufferView":25,
		"count":119,
		"componentType":5126,
		"type":"VEC3",
		"byteOffset":0,
		"min":[-16.648468017578126,
		-127.60446166992188,
		-16.648468017578126],
		"max":[16.648468017578126,
		127.60446166992188,
		16.648468017578126]
	},
	{
		"bufferView":25,
		"count":119,
		"componentType":5126,
		"type":"VEC3",
		"byteOffset":12,
		"min":[-1.0,
		-1.0,
		-1.0],
		"max":[1.0,
		1.0,
		1.0]
	},
	{
		"bufferView":25,
		"count":119,
		"componentType":5126,
		"type":"VEC2",
		"byteOffset":24,
		"min":[0.0,
		0.0],
		"max":[1.0,
		1.0]
	},
	{
		"bufferView":26,
		"count":2244,
		"componentType":5123,
		"type":"SCALAR",
		"byteOffset":0,
		"min":[0],
		"max":[711]
	},
	{
		"bufferView":27,
		"count":712,
		"componentType":5126,
		"type":"VEC3",
		"byteOffset":0,
		"min":[-566.1934814453125,
		126.72989654541016,
		-42.779911041259769],
		"max":[-303.40399169921877,
		231.51861572265626,
		42.779911041259769]
	},
	{
		"bufferView":27,
		"count":712,
		"componentType":5126,
		"type":"VEC3",
		"byteOffset":12,
		"min":[-0.9999994039535523,
		-0.9999996423721314,
		-0.9999997019767761],
		"max":[0.9999956488609314,
		0.9999995827674866,
		0.9999997019767761]
	},
	{
		"bufferView":27,
		"count":712,
		"componentType":5126,
		"type":"VEC2",
		"byteOffset":24,
		"min":[0.0,
		0.0],
		"max":[0.032207079231739047,
		0.36096644401550295]
	},
	{
		"bufferView":28,
		"count":38358,
		"componentType":5123,
		"type":"SCALAR",
		"byteOffset":0,
		"min":[0],
		"max":[9170]
	},
	{
		"bufferView":29,
		"count":9171,
		"componentType":5126,
		"type":"VEC3",
		"byteOffset":0,
		"min":[-211.2952880859375,
		-61.24436569213867,
		-547.4038696289063],
		"max":[1017.9688720703125,
		545.030517578125,
		69.34063720703125]
	},
	{
		"bufferView":29,
		"count":9171,
		"componentType":5126,
		"type":"VEC3",
		"byteOffset":12,
		"min":[-0.9998816847801209,
		-0.9997959136962891,
		-0.9996248483657837],
		"max":[0.9998816251754761,
		0.9999818205833435,
		0.9995540380477905]
	},
	{
		"bufferView":29,
		"count":9171,
		"componentType":5126,
		"type":"VEC2",
		"byteOffset":24,
		"min":[0.0026739835739135744,
		0.0046759843826293949],
		"max":[0.9969635009765625,
		0.99786376953125]
	}],
	"buffers":[{
		"uri":"data:application/octet-stream;base64,",
		"byteLength":1820
	},
	{
		"uri":"data:application/octet-stream;base64,",
		"byteLength":224264
	},
	{
		"uri":"data:application/octet-stream;base64,",
		"byteLength":224264
	},
	{
		"uri":"data:application/octet-stream;base64,",
		"byteLength":224264
	},
	{
		"uri":"data:application/octet-stream;base64,",
		"byteLength":4768
	},
	{
		"uri":"data:application/octet-stream;base64,",
		"byteLength":18816
	},
	{
		"uri":"data:application/octet-stream;base64,",
		"byteLength":9408
	},
	{
		"uri":"data:application/octet-stream;base64,",
		"byteLength":9120
	},
	{
		"uri":"data:application/octet-stream;base64,",
		"byteLength":1820
	},
	{
		"uri":"data:application/octet-stream;base64,",
		"byteLength":752
	},
	{
		"uri":"data:application/octet-stream;base64,",
		"byteLength":752
	},
	{
		"uri":"data:application/octet-stream;base64,",
		"byteLength":752
	},
	{
		"uri":"data:application/octet-stream;base64,",
		"byteLength":752
	},
	{
		"uri":"data:application/octet-stream;base64,",
		"byteLength":4768
	},
	{
		"uri":"data:application/octet-stream;base64,",
		"byteLength":27272
	},
	{
		"uri":"data:application/octet-stream;base64,",
		"byteLength":370188
	}],
	"materials":[{
		"pbrMetallicRoughness":{
			"baseColorFactor":[1.0,
			1.0,
			1.0,
			1.0],
			"metallicFactor":1.0,
			"roughnessFactor":1.0
		},
		"emissiveFactor":[0.0,
		0.0,
		0.0],
		"alphaMode":"OPAQUE",
		"doubleSided":true,
		"name":""
	},
	{
		"pbrMetallicRoughness":{
			"baseColorFactor":[1.0,
			1.0,
			1.0,
			1.0],
			"metallicFactor":1.0,
			"roughnessFactor":1.0
		},
		"emissiveFactor":[0.0,
		0.0,
		0.0],
		"alphaMode":"OPAQUE",
		"doubleSided":true,
		"name":""
	}],
	"animations":[{
		"samplers":[{
			"input":0,
			"interpolation":"LINEAR",
			"output":1
		},
		{
			"input":30,
			"interpolation":"LINEAR",
			"output":31
		}],
		"channels":[{
			"sampler":0,
			"target":{
				"node":1,
				"path":"rotation"
			}
		},
		{
			"sampler":1,
			"target":{
				"node":10,
				"path":"rotation"
			}
		}]
	}]
}